<svg xmlns="http://www.w3.org/2000/svg" width="115.375" height="175.72"><path d="M58.897 175.71q27.156 0 41.82-12.97t14.664-38.2q0-14.85-7.181-25.95T86.294 84.47a34.009 34.009 0 0 0 16.595-14.43 43.411 43.411 0 0 0 5.613-22.14q0-23.895-15.328-35.91T50.328-.02H-.001v175.73h58.9zm-.121-77.85h1.207q10.981.375 16.173 7.25t5.19 19.43q0 12.2-5.673 18.4-5.674 6.225-16.776 6.22H34.034v-51.3h24.742zm-24.742-71.2h16.294q12.067 0 18.1 5.91t6.034 18.47q0 11.22-5.793 17.13-5.793 5.925-16.776 6.16H34.034V26.66z" fill="#222" fill-rule="evenodd" opacity=".18"/></svg>