<svg xmlns="http://www.w3.org/2000/svg" width="115.375" height="175.72" viewBox="0 0 115.375 175.72">
  <metadata><?xpacket begin="﻿" id="W5M0MpCehiHzreSzNTczkc9d"?>
<x:xmpmeta xmlns:x="adobe:ns:meta/" x:xmptk="Adobe XMP Core 5.6-c142 79.160924, 2017/07/13-01:06:39        ">
   <rdf:RDF xmlns:rdf="http://www.w3.org/1999/02/22-rdf-syntax-ns#">
      <rdf:Description rdf:about=""/>
   </rdf:RDF>
</x:xmpmeta>
                                                                                                    
                                                                                                    
                                                                                                    
                                                                                                    
                                                                                                    
                                                                                                    
                                                                                                    
                                                                                                    
                                                                                                    
                                                                                                    
                                                                                                    
                                                                                                    
                                                                                                    
                                                                                                    
                                                                                                    
                                                                                                    
                                                                                                    
                                                                                                    
                                                                                                    
                                                                                                    
                           
<?xpacket end="w"?></metadata>
<defs>
    <style>
      .cls-1 {
        fill: #222;
        fill-rule: evenodd;
        opacity: 0.18;
      }
    </style>
  </defs>
  <path id="B" class="cls-1" d="M808.053,2807.12q27.156,0,41.82-12.97t14.664-38.2q0-14.85-7.181-25.95t-21.906-14.12a34.009,34.009,0,0,0,16.595-14.43,43.411,43.411,0,0,0,5.613-22.14q0-23.895-15.328-35.91t-42.846-12.01H749.155v175.73h58.9Zm-0.121-77.85h1.207q10.981,0.375,16.173,7.25t5.19,19.43q0,12.2-5.673,18.4-5.674,6.225-16.776,6.22H783.19v-51.3h24.742Zm-24.742-71.2h16.294q12.067,0,18.1,5.91t6.034,18.47q0,11.22-5.793,17.13-5.793,5.925-16.776,6.16H783.19v-47.67Z" transform="translate(-749.156 -2631.41)"/>
</svg>
