<svg xmlns="http://www.w3.org/2000/svg" width="21.406" height="14.281" viewBox="0 0 21.406 14.281">
  <metadata><?xpacket begin="﻿" id="W5M0MpCehiHzreSzNTczkc9d"?>
<x:xmpmeta xmlns:x="adobe:ns:meta/" x:xmptk="Adobe XMP Core 5.6-c142 79.160924, 2017/07/13-01:06:39        ">
   <rdf:RDF xmlns:rdf="http://www.w3.org/1999/02/22-rdf-syntax-ns#">
      <rdf:Description rdf:about=""/>
   </rdf:RDF>
</x:xmpmeta>
                                                                                                    
                                                                                                    
                                                                                                    
                                                                                                    
                                                                                                    
                                                                                                    
                                                                                                    
                                                                                                    
                                                                                                    
                                                                                                    
                                                                                                    
                                                                                                    
                                                                                                    
                                                                                                    
                                                                                                    
                                                                                                    
                                                                                                    
                                                                                                    
                                                                                                    
                                                                                                    
                           
<?xpacket end="w"?></metadata>
<defs>
    <style>
      .cls-1 {
        fill: #3a3a3a;
        fill-rule: evenodd;
      }
    </style>
  </defs>
  <path id="_" data-name="" class="cls-1" d="M674.566,24.717V23.646h1.428V20.434h-0.022a2.759,2.759,0,0,1-.614.636l-0.859-.892,1.651-1.528h1.272v5h1.428v1.071h-4.284Zm5.711-2.855c0-2.03-1.227-4.64-3.569-4.64s-3.569,2.61-3.569,4.64,1.227,4.64,3.569,4.64S680.277,23.891,680.277,21.861Zm5.711,2.855a2.861,2.861,0,0,0-2.855,2.855h-12.85a2.861,2.861,0,0,0-2.855-2.855V19.006a2.861,2.861,0,0,0,2.855-2.855h12.85a2.861,2.861,0,0,0,2.855,2.855v5.711Zm1.428-9.28a0.719,0.719,0,0,0-.714-0.714H666.714a0.719,0.719,0,0,0-.714.714v12.85a0.719,0.719,0,0,0,.714.714H686.7a0.719,0.719,0,0,0,.714-0.714V15.437Z" transform="translate(-666 -14.719)"/>
</svg>
