<svg xmlns="http://www.w3.org/2000/svg" width="21.406" height="14.281"><path data-name="" d="M8.566 9.998V8.927h1.428V5.715h-.022a2.759 2.759 0 0 1-.614.636l-.859-.892 1.651-1.528h1.272v5h1.428v1.071H8.566zm5.711-2.855c0-2.03-1.227-4.64-3.569-4.64s-3.569 2.61-3.569 4.64 1.227 4.64 3.569 4.64 3.569-2.611 3.569-4.641zm5.711 2.855a2.861 2.861 0 0 0-2.855 2.855H4.283a2.861 2.861 0 0 0-2.855-2.855V4.287a2.861 2.861 0 0 0 2.855-2.855h12.85a2.861 2.861 0 0 0 2.855 2.855v5.711zm1.428-9.28a.719.719 0 0 0-.714-.714H.714A.719.719 0 0 0 0 .718v12.85a.719.719 0 0 0 .714.714H20.7a.719.719 0 0 0 .714-.714V.718z" fill="#3a3a3a" fill-rule="evenodd"/></svg>