<svg xmlns="http://www.w3.org/2000/svg" width="14.938" height="14.28" viewBox="0 0 14.938 14.28">
  <metadata><?xpacket begin="﻿" id="W5M0MpCehiHzreSzNTczkc9d"?>
<x:xmpmeta xmlns:x="adobe:ns:meta/" x:xmptk="Adobe XMP Core 5.6-c142 79.160924, 2017/07/13-01:06:39        ">
   <rdf:RDF xmlns:rdf="http://www.w3.org/1999/02/22-rdf-syntax-ns#">
      <rdf:Description rdf:about=""/>
   </rdf:RDF>
</x:xmpmeta>
                                                                                                    
                                                                                                    
                                                                                                    
                                                                                                    
                                                                                                    
                                                                                                    
                                                                                                    
                                                                                                    
                                                                                                    
                                                                                                    
                                                                                                    
                                                                                                    
                                                                                                    
                                                                                                    
                                                                                                    
                                                                                                    
                                                                                                    
                                                                                                    
                                                                                                    
                                                                                                    
                           
<?xpacket end="w"?></metadata>
<defs>
    <style>
      .cls-1 {
        fill: #fff;
        stroke: #797979;
        stroke-linejoin: round;
        stroke-width: 1px;
        fill-rule: evenodd;
      }
    </style>
  </defs>
  <path id="_copy_7" data-name=" copy 7" class="cls-1" d="M911.975,3173.55a0.464,0.464,0,0,0-.469-0.38l-4.2-.61-1.885-3.82a0.418,0.418,0,0,0-.821,0l-1.885,3.82-4.205.61a0.458,0.458,0,0,0-.469.38,0.628,0.628,0,0,0,.209.4l3.05,2.97-0.721,4.19a1.224,1.224,0,0,0-.017.17,0.372,0.372,0,0,0,.352.42,0.7,0.7,0,0,0,.335-0.11l3.762-1.97,3.761,1.97a0.677,0.677,0,0,0,.335.11,0.365,0.365,0,0,0,.343-0.42,1.21,1.21,0,0,0-.008-0.17l-0.72-4.19,3.041-2.97A0.6,0.6,0,0,0,911.975,3173.55Z" transform="translate(-897.531 -3167.91)"/>
</svg>
