<svg xmlns="http://www.w3.org/2000/svg"><symbol id="icon-cart"><text data-name="&#xF07A;" y="15" font-size="20" fill="#3a3a3a" font-family="FontAwesome">&#xF07A;</text></symbol><symbol id="icon-star-rating"><path data-name="&#xF005; copy 7" d="M14.444 5.64a.464.464 0 0 0-.469-.38l-4.2-.61L7.89.83a.418.418 0 0 0-.821 0L5.184 4.65l-4.205.61a.458.458 0 0 0-.469.38.628.628 0 0 0 .209.4l3.05 2.97-.721 4.19a1.224 1.224 0 0 0-.017.17.372.372 0 0 0 .352.42.7.7 0 0 0 .335-.11l3.762-1.97 3.761 1.97a.677.677 0 0 0 .335.11.365.365 0 0 0 .343-.42 1.21 1.21 0 0 0-.008-.17l-.72-4.19 3.041-2.97a.6.6 0 0 0 .212-.4z"  stroke="#797979" stroke-linejoin="round" fill-rule="evenodd"/></symbol></svg>